<?xml version="1.0" encoding="UTF-8"?>
<svg version="1.1" viewBox="0 0 2048 1893" width="1280" height="1280" xmlns="http://www.w3.org/2000/svg">
<path transform="translate(1582,10)" d="m0 0h83l8 4 5 4 1 2 1 10v37l-3 78v29l2 69 1 70 7 8 5 6 8 7 10 10 7 8 12 13 11 14 13 16 13 19 14 20 9 15 10 17 11 17 11 19 11 21 10 19 12 23 11 25 8 24 3 15 4 4 17 4 22 8 24 11 15 9 11 9 8 10 6 12v13l-6 10-9 10-7 7-7 8-11 12-3 9 4 12 4 8 3 22 1 3v16l-6 8-13 8-11 7-7 7-3 9 1 19 3 10 4 16 1 5 1 40 1 66 7 8 5 4 6 3 5-2 11-7 10-4 5-1h15l13 4 11 6 12 11 9 11 7 14 5 21 1 10v10l-3 12-8 17-11 12-14 9-13 6-6 2h-20l-13-4-11-7-5-3-6 1-23 13-4 6-13 44-9 24-17 41-10 25-14 31-12 28-7 13-10 11 1 6 6 10 5 13 6 28 4 30v21l-5 26-8 27-11 27-10 18-10 14-8 10-9 10-11 11-14 11-15 10-25 13-19 7-26 7-29 2h-12l-36-2-7-2h-6l-11 8-12 9-15 10-26 16-28 17-22 12-23 11-30 13-36 15-27 11-34 12-31 10-40 10-51 11-31 6-12 2-32 2-1 1-51 2-11 1h-92l-45-3-10-2-19-3-69-14-31-8-55-18-34-12-26-11-21-9-19-9-19-10-16-8-28-15-23-14-24-16-18-13-13-10-13-9-38-28-15-13-12-11-5-4h-55l-16 1-31 1h-77l-21-3-6-3-5-5v-98l1-62v-73l-1-17v-39l-5-13-9-21-16-47-11-27-11-37-7-24-6-21-12-60-4-24-3-20-1-15h-21l-21-1-28-4-12-4-8-6-8-8-5-9-5-13-1-7v-30l2-11 7-14 7-7 24-13 13-10 5-2 12-1h10l15 2 8 2h4l4-7 1-6 1-16 5-28 2-19 5-26 1-4-21-1-7-3-1-2v-64l3-7 8-7 21-7 19-5 8-16 10-26 11-28 14-30 14-29 11-21 29-49 16-26 17-26 10-14 12-16 18-20 11-14 9-11 11-12 53-53 14-10 16-10 3-3 3-12 1-42 6-9v-8l-3-4v-2h-2l-7-8-11-12-11-14-4-9-1-7v-23l3-21 3-9 9-12 9-10 1-2h2l2-4 19-19 13-10 16-9 13-5 14-3h34l14 3 18 6 18 10 13 10 10 10 11 14 13 17 8 12 5 16v29l-4 13-6 10-12 13-21 21-1 3 6 8 3 6 2 11 3 3 15-11 17-10 16-8 20-9 39-14 36-12 27-8 44-10 41-8 49-8 32-3 16-1h84l43 3 36 4 26 4 15 4 19 6 5 3 4 1 2-84 3-34 4-10 4-5 8-5 305-1zm-224 48m-1 1m-3 1 1 2zm3 1-1 4 2-1v-2l2-1zm-2 5m-1 1m23 52-4 4 5-1 1-3zm-117 2m4 1m138 2m7 1m-918 100-7 3 1 16 1 5 4-1-2-6-1-11 20-3 1-3zm82 1 2 1v7h4v-8zm-65 1m-10 60 1 2zm1 2 2 5 4 4h2l1-6-3-3zm8 9m1 1m1 1m-68 11-8 7-9 9-7 8-9 9-9 11-12 14-33 42-13 17-14 20-12 17-11 16-18 27-8 14-12 22-13 25-8 14-17 34-21 52-5 21v8l3 5 11 3-4 2-18 4-9 1-65 2v2l15 3 4 3-1 4-4 1v2l-9 2v3l-3-1v2h-2l-2 3v3l9 1v2l2 1h29l20-2h14l13 1h17l1-1 2-20 4-17 19-39 11-25 13-28 8-16 13-25 14-24 10-16 13-21 9-14 12-16 14-18 10-13 13-17 13-16 12-16 12-14 9-11 12-14 14-15 3-2v-2l4-2 4-4-2-5-13-12-9-9-3-2zm688 58-6 3-2 8v10l1 9-27-3h-5v30l20-1 12-1 1-10h2l2-8 1-2 2-1-1-2 2-9 1 7 2 1 1-19h2v12l-1 2 2 1 1 5 6 2 2 23 2 2 1-24 2 21 24 4h8v-34l-35 7v-26l-3-5-5-2zm-359 7-9 2-3 3-1 10 3 27 2 1 5-2 1-1v-5h2v3l4-1 7-2-1-6 4-10v-18l-1-1zm907 12-10 9-12 9 1 7 11 14 12 14 9 14 12 17 10 16 14 22 8 13 14 27 6 10 6 7 16 8 14 9 9 7 14 16 4 5 2-1-7-22-4-15-7-14-12-19-10-18-10-19-14-21-13-21-10-16-11-15-13-17-9-10-14-14-3-2zm-951 13v14l1 15h15l10-2 1-1v-21l-6-2-17-3zm91 2-35 4-1 2v3l2 16h2v-11h4l2 10 3 1 24-1 1-10v-13zm326 1m347 0m-732 10 1 4zm364 10-2 19v15h11l13-3 4-4 2-10v-12h-22l-3-3-1-2zm-338 6-9 2v6h-2l1-6h-7l2 2v3h-2l-2-5-8-1v24l2 1 27-2-1-24zm1033 183m-74 3-2 2 10 1-2-2zm-3 2m-2 1m13 0m-14 1m15 0m2 1m2 1m1 1m1 1m1 1m1 1m2 1m1 1m1 1m1 1m1 1m1 1m1 1m1 1m1 1m1 1m1 1 1 6 4 1v-3h-2l-2-4zm-1 6m-1 1m-76 10m-1 2m-3 1 1 2h2v-2zm24 31 2 2v-2zm2 2-1 2h2zm206 9 1 2zm-4 1m-19 76-1 3-2-1-4 5-4 4 5-2 4-2 2 5h1l1-11zm-1724 7-4 19-5 30-7 35-2 11 2 4 3 1 32 2 4-1 3-9 8-56 6-35-1-1zm1712 4m-2 1m15 2m-60 33m-2 1-3 1 1 2 4-2zm0 3 4 1zm-83 9m1 1m-2 1-1 3h2l1-3zm84 31-6 5-1 3v25l3 17 4 7 2 9 1 13v31l-3 23v15l4 5 4 2h13l15-4 6-3v-56l-2-13-13-13-4-9-4-28-2-19-4-6-4-3zm-118 11 1 3 1-3zm4 7m49 6m-6 2m-1687 21-4 2v14h2l1-3-1-8h4l1 12h2l2 10h1l-1-27zm57 4-3 16v10h6l-2-4-1-13 10-1 3-1v-5l12 1 3-2-3-1zm15 4-1 2 8-1v-1zm-98 1-2 3 3 2v-3l6 15 3 3 1 4 2-1-2-7-5-10-1-3h2l-1-3zm25 9 1 8 1 5h1l-1-9zm-35 4 1 2zm1 2 1 6 4 3 4-1-5-3zm15 2-4 7h3l2-7zm22 5 1 4zm6 0 1 4zm-4 6-1 4 4-3zm3 0 3 20h1v-9l-1-10zm-5 4-2 5 3-2zm-3 5m-1 1m-24 2-1 1-1 12 1 1h10v-8l-1-3-4-1 1 8-3 2 1-6-2-6zm23 0m-35 1-1 2v8l4 2 4-1 2-3-1-6-1-2zm34 0 1 2zm-1 2v3zm7 0m1 1v3l2-1zm-10 2-3 7v4l4 1h11l-1-3-11-1 1-8zm18 3v7l-3-1-2 2h7l-1-8zm60 1v15h17l3-2-3-2-12-3-4-8zm24 11m-3 1m-8 44-1 4 1 26 8 36 7 35 6 22 14 43 5 18 10 25 16 35 10 23 4 4 36-2 4-2-1-6-11-17-7-12-9-21-10-25-10-28-10-35-15-60-6-27-5-32-1-3-5-1zm1794 44-1 5h2v-5zm2 1-1 7-2 9-1 12 3-1 1-4 4-15 1-4-3-4zm-3 5m-2 1-3 7 1 17h1l2-14v-6l1-4zm4 18m-5 7-1 2h2zm0 12 5 5 11 10 8 3h2v-2l-8-4-13-10zm-156 7m1 1 1 2zm1 2m1 1 2 4 2-1zm4 4m1 1 1 2 3-1zm5 2m42 28-20 8-12 5-5 4-5 12-8 22-13 30-13 27-12 21-6 13 1 4 4 4 16 10 8 4 4 1 7-8 17-36 13-26 13-33 8-24 7-33v-5zm-809 194-2 10v12l20-1 12-3 3-3 1-3-3-9h-3v-2zm-440 1-4 1-1 5v21l44-3 45-1 83 1v-23h-88l-24-1zm469 0m-559 74 1 9 3 2 1 3 4 1v-2l2-1-3-4h-2l-2-4zm10 14m1 1m735 32v1h5v-1zm5 2-6 2v2l8-1-1-3zm-517 6-7 2-1 14v12l34-1h169l3-4 2-8v-14l-2-1zm511-1-34 3v14 1l-1 1v12h29v-16h-17l-1 3h-7v-8l9-1v2h15l-1-4 2-4 8-1zm4 1 4 1zm5 0m5 0m9 0-4 2v9l1 1 16 1 4 1h-24l-4 2h2l-3 3h-4l-1 7-2-11-9-1v15l26 1h13l9-1 1-3 2-23-2-2-16-1zm-771 107-2 6-4 13-8 10-1 3 4 5 11 9 18 14 19 12 10 7 22 13 21 12 25 14 21 12 19 9 11 5 28 12 20 9 38 13 29 9 32 8 48 11 42 9 25 4 15 1 34 1 9 1h42l6-1 58-2 22-3 31-5 30-5 38-8 57-15 23-8 27-11 24-8 31-13 40-18 16-8 19-10 16-9 16-10 17-12 10-9 1-2v-6l-6-8-8-6-3-2h-7l-27 14-17 10-24 13-19 10-20 9-18 8-20 9-40 16-35 12-46 13-48 10-31 6-19 3-20 2-37 4-25 1h-61l-29-1-31-3-29-5-31-7-48-12-40-11-29-10-30-12-18-8-35-16-16-8-11-6-19-12-24-13-20-12-14-9-12-9-16-13-18-12zm750 71-16 6 4 1 10-3 3-2z" fill="#1B242F"/>
<path transform="translate(1017,590)" d="m0 0h49l339 2 7 2 5 4 2 4 1 23v449l-1 14-5 4-7 1h-198l-99 1h-245l-194-1-29-1-7-1-1-1-1-15-1-46v-368l1-56 7-8 7-4 15-1 63-1h276z" fill="#1B2530"/>
<path transform="translate(1027,535)" d="m0 0h69l46 1h124l129-1 14 3 17 7 14 9 12 11 9 10 8 14 5 12 2 7 1 21 1 374 1 74-2 15-7 14-11 13-10 9-14 9-10 4-14 2-16 1-265 1h-480l-13-2-14-6-16-10-12-11-7-8-6-10-3-9-1-6v-29l1-96-1-292v-60l7-19 9-16 11-12 11-8 16-8 16-5 4-1 336-1zm-10 55-16 1h-276l-63 1-15 1-7 4-7 8-1 56v368l1 46 1 15 1 1 7 1 29 1 194 1h245l99-1h198l9-2 3-3 1-14v-449l-1-23-4-6-4-3-6-1-190-1-149-1z" fill="#FDFDFD"/>
<path transform="translate(991,192)" d="m0 0 12 1h52l8 3 5-2 13 1 6-1 14 1 4 1h14l33 4 24 5 20 6 15 5 2 2v53l-12-2-43-9-48-8-25-3-17-1-76-1-6 1-31 2-40 6-28 5-34 8-27 8-36 12-26 10-29 12-27 13-19 10-24 13-15 9-21 14-38 29-15 13-35 35h-2l-2 4-26 26-7 8-10 11-9 11-11 13-12 16-13 18-12 18-12 19-14 24-10 18-9 17-13 29-10 25-14 43-8 29-10 53-7 52-2 26-1 4v67l3 45 6 40 10 48 7 26 12 36 10 28 12 29 11 23 11 18 11 14 6 9v3h-10l-14-1h-26l-9 1-5-5-11-15-12-23-9-20-11-27-8-21-14-42-7-26-7-35-5-33-3-28-1-10-1-9-1-4-1-50 1-42 3-45 3-32 4-29 3-16 6-26 13-45 6-20 8-19 8-17 9-20 14-27 10-19 10-18 7-11 12-19 10-16 11-16 12-16 11-14 14-17 9-10 12-13 9-11 18-18 7-8 11-12 8-6 6-1h20l11-4 16-12 12-10v-3l17-12 15-13 3-2-2 5v1l5-5 3-9 5-31 8-3 15-5 25-11 31-13 40-16 34-12 72-21 28-7 30-5 28-3h9l7-1 20-1h10z" fill="#FCFCFC"/>
<path transform="translate(1620,1314)" d="m0 0h18l22 2 16 4 23 9 15 9 18 13 13 11 8 8 15 24 8 13 8 17 5 16 5 24 2 15v19l-4 20-9 27-11 21-8 11-12 14-13 12-16 11-17 11-17 9-16 5-22 4-9 1h-19l-22-4-21-7-15-8-21-13-15-13-11-10-7-8-11-14-10-18-6-15-4-14-3-11-2-20v-14l1-3 1-16 4-18 10-25 12-22 10-16 11-12 5-5 11-10 16-10 23-12 19-8 12-3z" fill="#FDFDFD"/>
<path transform="translate(1530,166)" d="m0 0h66l39 1v55l-1 41v34l1 39v16l-6 3-11 2-37-1h-125l-116 1h-81l-1-1-1-139v-49h41z" fill="#FCFCFC"/>
<path transform="translate(488,1182)" d="m0 0 42 2 159 3 117-1 39-1 46-2h10l6 8 11 7 5 2 9 1h10l45-4 17-1h47l53 3h31l9-6 8-9h33l48 1h304l27 1-1 5-9 17-8 12-9 11-9 8-14 8-15 6-12 3h-312l-123-1h-142l-41 1h-310l-13-3-16-8-13-9-11-11-10-14-6-12-3-13z" fill="#FDFDFD"/>
<path transform="translate(514,1432)" d="m0 0 7 6 15 15 11 9 13 11 13 10 14 11 20 15 15 10 17 11 39 24 18 10 43 22 29 12 25 10 36 12 40 12 32 7 46 7 43 4 19 1h26l27-1 34-3 44-6 48-8 28-7 35-11 34-12 37-15 27-12 23-11 19-10 21-11 13-8 4-4 4 1 11 23 7 19-1 5-16 12-18 11-17 10-46 23-36 15-51 19-21 7-21 6-39 9-21 4-32 5-27 3-31 2h-72l-37-2-26-2-34-5-33-7-53-15-38-12-34-13-25-10-29-14-22-12-27-16-24-14-14-9-22-15-11-8-13-10-14-12-14-13-7-8-9-9-2-15v-46l1 4 4 1v3l4 2v-4l-1-3h-2l-5-7-2 1zm10 16m1 1m736 218-16 6 4 1 10-3 3-2z" fill="#FDFDFD"/>
<path transform="translate(241,1351)" d="m0 0h149l75 1 1 15v76l-1 135h-154l-67 1-2-1-1-80z" fill="#FDFDFD"/>
<path transform="translate(1719,877)" d="m0 0 7 6 10 8 7 3 5 1h7l15-4 4-1v75l-2 40-1 9-1 21-4 15-6 13-3 11-2 11-4 10-4 9-2 9 2 10 3 9 1 9-3 14-8 26-9 29-8 21-16 34-7 11-5-1-13-4-16-3-24-2 2-6 13-26 11-25 20-55 9-29 8-34 4-24 3-23 4-52 2-41 1-33zm1 3 1 3 1-3z" fill="#FCFCFC"/>
<path transform="translate(347,1387)" d="m0 0h17l30 7h30v26l4 18 2 11v26l-3 16-7 26-1 10-9 3-22 5-26 4h-16l-21-5-15-3-11 1-11 5-3-1 1-11v-14l-5-34v-25l3-27v-29h28l25-7z" fill="#1C2530"/>
<path transform="translate(1821,673)" d="m0 0h13l24 4 34 9 27 9 10 5-1 4-16 12-17 13-13 9-18 14-13 10-14 12-13 10-16 13-17 12-11 10-8 7-9 9-7 9h-3l-4-16-7-31-3-17-1-11v-27l1-9 5-10 18-20 8-7 11-9 14-8 13-4zm101 26 1 2zm-4 1m-163 136m1 1m-2 1-1 3h2l1-3z" fill="#FDFDFD"/>
<path transform="translate(523,55)" d="m0 0h17l15 4 11 5 10 6 12 12 10 15 8 15 4 11v7l-6 7-7 12-9 12-11 13-9 11-6 5-2 1h-18l-13-2-28-2-17-17-13-18-8-13-5-12v-12l8-16 6-9 9-11 10-10 14-9 13-4z" fill="#FDFDFD"/>
<path transform="translate(1559,399)" d="m0 0 3 3 10 14 13 16 12 14 13 16 11 14 12 16 14 20 12 18 15 23 8 16 3 11-1 6-7 7-13 19-9 12h-2l-4-9-12-20-12-18-15-22-12-17-9-12-10-13-12-14-14-15-9-10-15-16-14-15-9-9-7-8-10-11-5-9v-5l16 1h34l21-2z" fill="#FDFDFD"/>
<path transform="translate(717,645)" d="m0 0 2 2v13l1 23v359l-1 2-13 2h-14l-1-77v-141l2-180 1-1 19-1z" fill="#FDFDFD"/>
<path transform="translate(1e3 354)" d="m0 0h20l12 4 11 8 6 9 3 9v47l-4 10-9 9-12 7-11 3h-13l-13-5-9-6-10-9-6-10-4-10-2-10 1-13 3-12 6-10 9-10 9-7z" fill="#FDFDFD"/>
<path transform="translate(942,1313)" d="m0 0h8l11 2 10 5 9 7 7 10 6 13 3 10v20l-4 11-9 11-10 8-12 5-5 1h-14l-14-4-11-6-10-10-6-12-2-8v-18l3-12 7-11 8-9 13-9 7-3z" fill="#FDFDFD"/>
<path transform="translate(1134,1453)" d="m0 0h8l9 2 9 5 10 9 7 8 5 12 2 14v14l-3 10-7 12-8 8-12 6-11 2h-12l-13-4-13-9-8-9-6-12-3-14v-10l2-10 7-12 8-8 13-9 10-4z" fill="#FDFDFD"/>
<path transform="translate(1361,56)" d="m0 0h3l-1 6-9 17-10 14-9 16-3 9-2 7h-20l-53 1 1-68 92-1zm-3 2m-1 1m-3 1 1 2zm3 1-1 4 2-1v-2l2-1z" fill="#FDFDFD"/>
<path transform="translate(910,744)" d="m0 0h45l58 1h10l3 5 3 8v8l-1 1h-109l-47-1-14 1-64 1h-29v-8l4-13 1-1 7-1h96l2 5 2-5z" fill="#FDFDFD"/>
<path transform="translate(1451,210)" d="m0 0h17l8 5 7 8 1 3 3 47v15l-5 10-7 7-8 4-9 1-9-2-11-6-13-11-8-10-2-4v-23l5-12 6-10 19-19z" fill="#1C2531"/>
<path transform="translate(1067,957)" d="m0 0h15l2 2v14l-1 6-4 1h-253l-2-6v-16h152z" fill="#FDFDFD"/>
<path transform="translate(849,789)" d="m0 0h128l70 1 25 1h16l1 1v18l-1 1h-29l-55-1-51-2h-73l-38 2-24 3h-5v-20l2-2 6-1z" fill="#FDFDFD"/>
<path transform="translate(1026,651)" d="m0 0 7 1v17l-4 3-3 1h-257l-5-5-1-4v-8l1-3 2-1h22l89 1h122z" fill="#FDFDFD"/>
<path transform="translate(1892,1055)" d="m0 0h8l10 4 9 6 6 7 5 11 2 10v19l-3 10-6 9-8 7-7 3h-19l-7-4-8-8-8-16-2-7v-17l4-11 8-11 7-7z" fill="#FDFDFD"/>
<path transform="translate(1049,912)" d="m0 0h190l4 1 1 3v18l-1 1h-47l-79-1h-76l-7-3-1-2-1-14 5-2z" fill="#FDFDFD"/>
<path transform="translate(893,355)" d="m0 0h16l13 4 10 6 6 6 1 6-6 7-5 3-5-1-9-6-8-3h-10l-10 4-8 8-4 8-1 5v8l3 9 6 9 9 7 6 3h13l11-6 4-3 6 2 6 4 2 3-1 6-7 8-9 6-11 4-4 1h-11l-13-5-10-6-8-7-8-12-4-12v-21l2-10 5-10 11-12 8-7 10-5z" fill="#FDFDFD"/>
<path transform="translate(351,1425)" d="m0 0h12l10 4 10 9 7 14 2 9-1 13-6 12-6 7-9 6-8 3h-8l-13-5-9-7-8-9-4-9v-14l4-11 6-9 7-7 10-5z" fill="#FDFDFD"/>
<path transform="translate(1341,1324)" d="m0 0 8 1 10 6 8 10 4 11 1 6v17l-2 12-5 12-8 8-12 5h-6l-8-6-7-7-7-11-5-12-1-4v-17l4-9 7-9 9-9 6-3z" fill="#718296"/>
<path transform="translate(1975,1057)" d="m0 0h11l8 3 7 6 7 12 4 11 1 9v9l-2 11-5 9-9 8-13 6h-8l-10-5-10-9-5-7-3-7-1-5v-16l5-14 9-12 8-7zm-17 18-1 5h2v-5zm2 1-1 7-2 9-1 12 3-1 1-4 4-15 1-4-3-4zm-3 5m-2 1-3 7 1 17h1l2-14v-6l1-4zm4 18m-5 7-1 2h2zm0 12 5 5 11 10 8 3h2v-2l-8-4-13-10z" fill="#FDFDFD"/>
<path transform="translate(1025,1453)" d="m0 0h8l12 3 11 6 6 7 1 10-7 6-4 1-10-7-6-2h-14l-6 3-7 7-4 9-1 8 3 10 6 8 7 6 7 3h8l10-6 7-6 4-2 5 1 3 6v7l-3 6-7 7-11 7-5 2-8 1-16-4-11-6-8-7-7-10-4-9-1-6v-16l4-13 7-11 10-10 12-7z" fill="#FDFDFD"/>
<path transform="translate(1816,1054)" d="m0 0 9 1 9 6 8 9 3 8-1 8-6 9 1 6 8 7 3 3v7l-5 9-7 7-12 7-5 1h-8l-9-3-9-6-8-9-1-3v-8l4-7 9-10-1-5-5-8v-9l6-9 10-8zm-18 72m1 1 1 2zm1 2m1 1 2 4 2-1zm4 4m1 1 1 2 3-1z" fill="#FDFDFD"/>
<path transform="translate(1266,1326)" d="m0 0h10l12 6 8 8 5 11 3 18-1 15-5 10-10 11-9 5-11-1-6-4-7-6-8-13-3-8v-23l3-10 5-8 7-7z" fill="#718296"/>
<path transform="translate(815,913)" d="m0 0h23l26 2h38l41-2h59l1 1 1 17-1 2-43 1-95 1h-52l-1-1v-15l2-5z" fill="#FDFDFD"/>
<path transform="translate(1743,614)" d="m0 0 5 1 10 6 11 8 10 10 2 5-13 10-15 10-13 11-11 9-13 13-3-1-7-12-12-15-6-9 1-4 4-2v-2h2l2-4 11-10 20-15 12-8zm0 2-2 2 10 1-2-2zm-3 2m-2 1m13 0m-14 1m15 0m2 1m2 1m1 1m1 1m1 1m1 1m2 1m1 1m1 1m1 1m1 1m1 1m1 1m1 1m1 1m1 1m1 1 1 6 4 1v-3h-2l-2-4zm-1 6m-1 1m-76 10m-1 2m-3 1 1 2h2v-2zm24 31 2 2v-2zm2 2-1 2h2z" fill="#FDFDFD"/>
<path transform="translate(456,861)" d="m0 0h9l10 3 9 6 7 10 4 13v8l-3 9-6 9-8 6-7 3-11 1-9-2-11-7-8-9-4-8v-16l5-10 8-9 8-5z" fill="#FDFDFD"/>
<path transform="translate(1336,210)" d="m0 0 13 1 7 3 2 5 2 58 1 11-6 16-6 4-6 1h-17l-7-3-4-3-1-3v-8l2-11 6-8 2-4 1-12v-36l-1-3 3-5z" fill="#1D2632"/>
<path transform="translate(895,696)" d="m0 0h9l6 9 1 4v10l-5 2-127 2h-13l-5-1v-22l11-1 36-1h48l35-1z" fill="#FDFDFD"/>
<path transform="translate(1584,861)" d="m0 0h13l10 4 10 9 5 8 2 6v15l-6 12-7 7-10 5-3 1h-13l-12-6-7-7-6-11-1-4v-13l5-12 9-9 8-4z" fill="#FDFDFD"/>
<path transform="translate(1554,211)" d="m0 0h16l9 3 2 2 1 5v82l-2 2-14 2h-11l-7-8-1-3v-77l2-5z" fill="#1E2732"/>
<path transform="translate(859,832)" d="m0 0h122l2 1 1 7v15h-144l-1-1v-14l3-6z" fill="#FDFDFD"/>
<path transform="translate(1513,55)" d="m0 0 14 2h13l17-1-2 5-11 16-12 17-13 19-10 13-2 2-4-1-2-1-13-1h-20l-1-3 7-12 8-11 15-23 10-15 4-5z" fill="#FDFDFD"/>
<path transform="translate(954,697)" d="m0 0 9 1 6 1h112l4 4v7l-3 9-5 3-6 1h-30l-87-1-4-2-2-5v-13z" fill="#FDFDFD"/>
<path transform="translate(1422,55)" d="m0 0 11 2h17l8-2h5l-2 5-12 18-15 22-12 14-8 10-5 2-7-1h-29l-1-2 6-1-1-2-4 2 2-6 10-15 12-15 10-14 10-13z" fill="#FDFDFD"/>
<path transform="translate(1194,1322)" d="m0 0 2 1 2 6 4 9 10-1h4l3 3 1 12h-2l-1 3-7-2-2 12-3 1-2 11-5 3-2 5-6 1v5l-3-1-2-6-1-1v-7l2-1v-21l-13-1-3 1-13 1-4 1-1 3v13l1 2h20l2 3v8l-3 1h-18l-7-1 3 22-11-1-1-1-1-19-18-2-2-1-1-4 4-4 7-1h12v-17l-7-3-5-4-3-3 1-2 8-4 3-8 2-8 4-1 5 4 3 17 7 1 2-1h9l3 1h9l3-1 2-5 8-17z" fill="#718296"/>
<path transform="translate(939 1e3)" d="m0 0h9l3 5 2 7v10l-1 1-7 1-94-1-33-1-4-4-2-8 3-5 7-4z" fill="#FDFDFD"/>
<path transform="translate(1010,374)" d="m0 0 11 2 12 6 9 9 5 10-2 12-6 10-10 9-9 4-6 1-11-2-10-6-8-11-3-8v-11l5-10 6-7 10-6z" fill="#1C2530"/>
<path transform="translate(1604,55)" d="m0 0 38 1-2 9-10 20-12 21-10 13-7 4-3 1-15 1h-21l2-6 13-22 13-20 11-18z" fill="#FDFDFD"/>
<path transform="translate(547,106)" d="m0 0h15l6 4 3 5v12l-8 10-10 7-5 2h-3l-2-4-2 7-8 7h-7l-11-7-10-7-9-8-3-8 2-10 4-5 2-1 11-1 25-1z" fill="#1D2631"/>
<path transform="translate(1528,1398)" d="m0 0 5 2 21 14 1 4-5 14-4 27-1 18h-42l-1-1 1-10 8-28 11-27 5-12z" fill="#1E2732"/>
<path transform="translate(1694,1421)" d="m0 0 4 1 3 9 5 32 1 13-1 1h-55l-1-19v-25l1-1 16-1 12-3z" fill="#1D2631"/>
<path transform="translate(943,1335)" d="m0 0h9l9 3 8 6 6 10 2 7v13l-4 8-5 6-8 5-3 1h-10l-10-4-10-9-5-7-2-8v-7l4-10 8-8 8-5z" fill="#1C2530"/>
<path transform="translate(1742,1400)" d="m0 0 4 1 8 13 7 16 7 24 3 16v7l-4 1-36-1-2-27-3-16-5-15v-5l8-5z" fill="#1D2732"/>
<path transform="translate(1577,1425)" d="m0 0 6 1 21 5 9 2 9 1v-2h2l1 2v38l-1 5-2 1-53-1v-11l3-23 4-15z" fill="#1D2732"/>
<path transform="translate(1e3 1e3)" d="m0 0h69l19 1 6 2 2 3 1 5v9l-2 2-4 1h-47l-57 1-3-3-1-2v-12l3-5 3-1z" fill="#FDFDFD"/>
<path transform="translate(1129,1477)" d="m0 0h15l12 6 6 8 3 9v8l-2 9-6 9-7 6-4 2h-12l-9-4-8-7-4-5-3-7-1-10 3-10 9-10z" fill="#1C2530"/>
<path transform="translate(886,874)" d="m0 0h19l51 1 2 7 1 12-1 1-14 1-51 1h-24l-18-1-10-3-3-3 1-7 5-5 7-2 9-1z" fill="#FDFDFD"/>
<path transform="translate(155,916)" d="m0 0h7l5 3 11 2 3 3 1 5 1 55h-2v3h-2v2l-15 3h-11v-2l15-1 2-1-14-4-4-8-1 14h-1v-22l2-13 4-3h2l2-4h9v-2l-5 1-30 1-2-4v-10l3-10h1l-1 12-1 10h6l-3-4-1-11 1-2 13-2-1-5 2-1 11 1v-1l-22-1v-1l13-1zm-3 8-1 2 8-1v-1z" fill="#FAFAFB"/>
<path transform="translate(501,223)" d="m0 0h21l46 1 11 1 2 2v12l-1 9-1 2-6 1-76-1-9 2-1-3 2-1-2-3v-14l6-2 14-2 1-2h-16v-1zm72 3 2 1v7h4v-8z" fill="#FDFDFD"/>
<path transform="translate(1701,1497)" d="m0 0h6v9l-4 35-1 4-8-1-27-8-18-3-1-34 43-1z" fill="#1F2834"/>
<path transform="translate(1896,774)" d="m0 0 5 1 4 13v19l-5 8-10 9-11 7-9 4-12 2-15-4-10-4v-4l10-8 19-13 10-8 18-18zm3 2-1 3-2-1-4 5-4 4 5-2 4-2 2 5h1l1-11zm-12 11m-2 1m15 2m-60 33m-2 1-3 1 1 2 4-2zm0 3 4 1z" fill="#FDFDFD"/>
<path transform="translate(1527,1500)" d="m0 0h18l2 6 3 27 2 12v8l-19 8-5-1-5-5-6-10-8-17-6-16-1-8 1-2z" fill="#1D2732"/>
<path transform="translate(1136,743)" d="m0 0h17l4 4v15l-2 6-5 1h-13l-21-1h-34l-10 2h-6l-1-1v-19l2-4 2-1 36-1h17z" fill="#FDFDFD"/>
<path transform="translate(845,1310)" d="m0 0 5 2 3 9v95l-3 5h-7l-10-3-1-2v-78l2-14 4-8 5-5z" fill="#FDFDFD"/>
<path transform="translate(572,269)" d="m0 0 3 1 2 9v7l-7 10-8 8-18 11-2 1h-11l-12-7-10-7-2-4v-8l-8-1 6 9-4-2-6-9v-3l17-3 51-5 7-1zm-74 18 1 2z" fill="#FDFDFD"/>
<path transform="translate(1651,1340)" d="m0 0 7 1 11 8 7 7 9 14 11 21-1 4-16 8-24 7-4-1-1-46v-22z" fill="#1E2833"/>
<path transform="translate(1568,1499)" d="m0 0h57l1 2v31l-21 2-16 4-10 5-3-1-3-15-5-24z" fill="#1E2833"/>
<path transform="translate(1730,1499)" d="m0 0 9 1h28l1 3-4 13-10 34-5 9-4 4-9-2-11-4-1-1 1-13 3-19z" fill="#1E2833"/>
<path transform="translate(1620,1342)" d="m0 0 5 1 1 4v54l-1 9-11-1-15-4-15-7 1-6 10-21 8-12 11-13z" fill="#1F2834"/>
<path transform="translate(1441,217)" d="m0 0v3l-1 6 5 4 2 1v2h2v2h2l4 10 1 1-1 15-5 10h-3v2l-7 3-9 2-1 10 1 7-4-2-9-10-3-6v-23l5-12 6-10z" fill="#718296"/>
<path transform="translate(1615,1560)" d="m0 0h11l1 1 1 7 1 25v21l-2 5-10-2-10-6-6-7-8-16-6-13-1-6 3-3 12-3z" fill="#1E2833"/>
<path transform="translate(1651,1560)" d="m0 0 11 1 21 4 12 5 2 4-3 5-5 4-10 15-9 10-5 4-9 5h-5z" fill="#1C2631"/>
<path transform="translate(1076,653)" d="m0 0 74 1 2 2 2 9v8l-5 2h-31l-39-2-4-2-2-3v-11l1-3z" fill="#FDFDFD"/>
<path transform="translate(490,258)" d="m0 0h20l9 2 6 2 27-1 15 1 3 1h3l2 7-3-1-2 7-65 7-10 1-1 3-1-6h-2l-1-3-1-19z" fill="#718296"/>
<path transform="translate(1892,1076)" d="m0 0h14l6 4 4 10v12l-3 14-4 6-4 3h-7l-8-6-6-8-2-8v-15l3-7 5-4z" fill="#1E2732"/>
<path transform="translate(81,914)" d="m0 0 7 1 2 7 5 37 1 14v10l-3 2h-19l-3-3 14 1-1-2-11-1-1-3v-1l-2 2v-11l6-9v-9l-3-3-3 3-2 3-9-1-3-2h3l1-5 1-2 3 1 1 5 1-2-3-7-4-8v-3l3 1 5 10 2 1v-10l2-11 6-4zm-1 2-4 2v14h2l1-3-1-8h4l1 12h2l2 10h1l-1-27zm-1 18 1 8 1 5h1l-1-9zm3 13 1 4zm6 0 1 4zm-4 6-1 4 4-3zm3 0 3 20h1v-9l-1-10zm-5 4-2 5 3-2zm-3 5m-1 1m-1 2m-1 1 1 2zm-1 2v3zm7 0m1 1v3l2-1zm8 5v7l-3-1-2 2h7l-1-8z" fill="#FDFDFD"/>
<path transform="translate(1977,1075)" d="m0 0 10 2 5 5 4 7v13l-4 11-6 8-4 2-8-1-9-8-2-5v-13l3-10 6-9z" fill="#1E2733"/>
<path transform="translate(757,391)" d="m0 0h1l3 27 6-2 1-5h2v3l7-3h4l1-2 1 3h-2l2 5v11h2v-11h4l2 5v5h27v-10l1-12h1v14l-1 9-1 1h-31l1 27-25 1-4-2 14-1h13l-1-5-1-18-9 1v6h-2v-5h-4l1 5-3-1-2-4-8-2v20l-2-2-1-18-7 1h-16l-3-2 14-1 10-2 1-21 4 1zm1 23 1 4z" fill="#E9ECEE"/>
<path transform="translate(1047,1357)" d="m0 0h27l26 1 5 2 2 3 3 15v3l-69 2v-17l2-8zm-3 2-2 10v12l20-1 12-3 3-3 1-3-3-9h-3v-2z" fill="#7D8C9F"/>
<path transform="translate(1257,1479)" d="m0 0h12l4 6 3 1 25 2 4 2-1 2-1-1-16-1-8 1v9l16 1 5 2v1h-19l-2-1v7h-1v-7l-5 2-2 6-2-3h-2l-2 9h-1l-1-13-9-1v15h26v1h-27v-16l-17 1-1 2h-7v-8l9-1v2l6-1h8l-1-3 3-5 6-1-25 2h-9v-1l30-4v-5zm3 2v1h5v-1zm5 2-6 2v2l8-1-1-3zm-2 6 4 1z" fill="#FDFDFD"/>
<path transform="translate(1340,1348)" d="m0 0 8 1 5 5 3 6v15l-3 9-5 4h-8l-6-5-4-8-1-6v-8l4-9 3-3z" fill="#1A232E"/>
<path transform="translate(1281,912)" d="m0 0h27l3 2v15l-2 9h-17l-15-1-1-4 1-18 1-2z" fill="#FDFDFD"/>
<path transform="translate(1953,789)" d="m0 0 23 10 15 8 4 4 1 3-3 5-8 2-31-1z" fill="#FAFAFA"/>
<path transform="translate(1135,381)" d="m0 0h2l1 12v2l1 5 7 3 2 23 1-23 2 1 1 11v10l11 1 21 3v1l-22-1-10-3-1 17-1 5h-1l1-19-7 1h-15l-4-4v-2h-2v-7l1-3h2l1-9 3-2-1-2 2-10 2 1 1 7 1-14z" fill="#FAFAFB"/>
<path transform="translate(775,951)" d="m0 0h14l2 5v20l-2 2-15 2h-7l-5-4-1-3v-14l2-5 3-2z" fill="#FDFDFD"/>
<path transform="translate(1272,1346)" d="m0 0 8 1 4 5 1 3v20l-3 6-4 3h-9l-5-4-1-3v-17l4-9z" fill="#1A232E"/>
<path transform="translate(126,791)" d="m0 0h1v8l-2 10-2 18-5 31-1 16-5 10-1 1h-9l-19-3-20 1-7 3-11 9-17 9-8 4-7 7-5 11-2 10v31l4 16 4 8 6 8 4 3v2l4 2 5 3 16 4 29 3 33 2v1h-20l-21-1-28-4-12-4-8-6-8-8-5-9-5-13-1-7v-30l2-11 7-14 7-7 24-13 13-10 5-2 12-1h10l15 2 8 2h4l4-7 1-6 1-16 5-28 2-19z" fill="#8C9AAA"/>
<path transform="translate(1299,77)" d="m0 0 7 2 6 7 1 9-3 6-4 3h-13l-6-3-3-3-1-8 4-7 8-5z" fill="#1F2834"/>
<path transform="translate(772 1e3)" d="m0 0 9 1 9 4 1 2-1 9-9 7-14 3h-6l-1-1v-13l3-7 6-4z" fill="#FDFDFD"/>
<path transform="translate(1020,545)" d="m0 0h9l5 4 3 7v9l-3 6-5 4h-9l-6-5-2-5v-10l3-6z" fill="#1F2934"/>
<path transform="translate(1193,744)" d="m0 0h12l5 5 1 9-3 9-4 3-4 1h-8l-6-3-2-3v-12l4-6z" fill="#FDFDFD"/>
<path transform="translate(201,693)" d="m0 0h1l3 9 11 3v3l-22 5-9 1-39 1h-26v2h7l10 3 3 3-1 4-5 1v2l-3 2h-4l-1 2-6 2-2 6h9l2 4-7-1-7-2v-9h2l1-17h-2v-2l4-2 55-1 18-2 11-2-3-4z" fill="#FBFCFC"/>
<path transform="translate(1145,999)" d="m0 0 5 1 4 9v14l-3 2h-17l-5-5-2-5v-5l5-5 9-5z" fill="#FDFDFD"/>
<path transform="translate(1812,1106)" d="m0 0h15l3 3 1 8-5 10-5 4h-9l-5-5-2-4v-10l4-5z" fill="#202A36"/>
<path transform="translate(1578,1357)" d="m0 0h2l-1 4-11 23-4 5-6-2-9-6-3-4 7-8 12-6 12-5z" fill="#222C38"/>
<path transform="translate(758,1359)" d="m0 0h13l1 1 2 24-1 1h-78l-57 1-1 1h-35v-1l41-3 45-1 65 1 18 1v-23l-23 1h-65v-1l54-1z" fill="#FDFDFD"/>
<path transform="translate(1017,834)" d="m0 0h7l4 4 2 5-1 9-3 5-4 1h-7l-6-2-2-7 3-8 4-5z" fill="#FDFDFD"/>
<path transform="translate(1072,1360)" d="m0 0h15l12 1 1 1v8l-4 3h-3l1 3-1 1-23 3h-8l3-2 9-2 3-3-1-7-1-3-3-1z" fill="#FDFDFD"/>
<path transform="translate(1127,791)" d="m0 0h5l3 4 1 3v12l-2 4-4 2h-7l-6-3-1-7 4-8 5-6z" fill="#FDFDFD"/>
<path transform="translate(1830,877)" d="m0 0h1l1 25 3 17 4 7 2 9 1 13v31l-3 23v15l5 5 2 1h13l15-4 6-2-1 3-16 5-10 3-12-5-4-5-1-3v-10l3-27v-33l-1-12-5-10-2-6-1-7-1-25z" fill="#8291A2"/>
<path transform="translate(947,1504)" d="m0 0h1l-1 11-1 2-205 1v-2l33-1h169l3-6z" fill="#8997A8"/>
<path transform="translate(246,670)" d="m0 0 1 3-12 25-6 16-2 14-1 15-1 3-3 1h-92v-1l28-1 20-2h14l13 1h17l2-20 4-17z" fill="#8A98A8"/>
<path transform="translate(1817,1069)" d="m0 0 7 1 5 6v9l-4 4h-9l-5-3-2-3v-7l4-6z" fill="#222C37"/>
<path transform="translate(1853,875)" d="m0 0 3 3 3 15 5 32 6 12 9 10 2 6 1 8v54l-2 2-1-56-2-13-13-13-4-9-4-28-2-19z" fill="#8190A2"/>
<path transform="translate(1126,956)" d="m0 0 7 1 2 3v12l-4 4-7 3-5-1-2-3v-7l4-8z" fill="#FDFDFD"/>
<path transform="translate(1562,1578)" d="m0 0 5 1 6 14 5 13-1 2-8-7-10-6-6-5 1-6 5-5z" fill="#252F3B"/>
<path transform="translate(786,159)" d="m0 0 4 1-52 17-24 9-26 10-21 11-16 8-14 9-8 6-3-1 13-10 15-9 17-9 24-11 39-14 36-12z" fill="#8694A5"/>
<path transform="translate(513,13)" d="m0 0h34l14 3 18 6 9 5-2 1-17-7-19-5-5-1h-29l-17 4-12 5-18 10-9 7-15 14-1 2h-2l-2 4-12 12-5 6v-3l10-11 1-2h2l2-4 19-19 13-10 16-9 13-5z" fill="#7E8D9F"/>
<path transform="translate(1186,651)" d="m0 0 10 3 3 3 1 3v7l-2 4-7 3h-6l-1-1v-14z" fill="#FDFDFD"/>
<path transform="translate(582,358)" d="m0 0 4 2-10 9-12 9-9 6-9 3h-20v-1h10v-2l16-6h3v-2l4-2h3v-2l6-3 1-2h3v-2h3v-2l3-1 1-2h3z" fill="#808FA1"/>
<path transform="translate(1185 1e3)" d="m0 0h7l5 3 1 2v10l-4 4h-8l-4-3v-7z" fill="#718296"/>
<path transform="translate(126,791)" d="m0 0h1v8l-2 10-2 18-5 31-1 16-5 10-1 1h-9l-19-3-20 1-7 3-6 5-2-1 6-7 7-3 12-1h10l15 2 8 2h4l4-7 1-6 1-16 5-28 2-19z" fill="#8593A4"/>
<path transform="translate(214,785)" d="m0 0h1l-1 14-5 31-6 46-3 8-5 3h-10l-24-3-2-2 39 2 4-20 5-39z" fill="#8291A2"/>
<path transform="translate(55,926)" d="m0 0 2 2 3 9 1 5-8 12-2 1-5-5-6-16 1-5 4 4 6 9 2 2v-15zm-11 12 1 2zm1 2 1 6 4 3 4-1-5-3z" fill="#FBFBFC"/>
<path transform="translate(1257,1479)" d="m0 0h12l4 6 3 1 25 2 4 2-1 2-1-1-16-1-19-2v-4l-8 1-1 4-25 2h-9v-1l30-4v-5zm3 2v1h5v-1z" fill="#8896A7"/>
<path transform="translate(1941,756)" d="m0 0 1 2-2 7 4 12 4 8 3 22 1 3v16l-6 8-13 8-2-1 11-8 6-8 2-6v-8l-2-2v-3h-2l-1-8v-10l-8-24 3-7z" fill="#8F9CAC"/>
<path transform="translate(1988,807)" d="m0 0 4 1 3 3 1 3-3 5-8 2-31-1v-8l9 2 11 2h12l4-3v-3l-2-1z" fill="#768699"/>
<path transform="translate(1703,1367)" d="m0 0 8 1 10 5 2 2-1 5-9 3-5-1-6-10z" fill="#26303D"/>
<path transform="translate(4,967)" d="m0 0h2l4 16 4 8 6 8 4 3v2l4 2 5 3 16 4 29 3 33 2v1h-20l-21-1-28-4-12-4-8-6-8-8-5-9-5-13z" fill="#7D8D9F"/>
<path transform="translate(201,693)" d="m0 0h1l3 9 11 3v3l-22 5-9 1h-65v-1l55-1 18-2 11-2-3-4z" fill="#8795A6"/>
<path transform="translate(696,1382)" d="m0 0m-21 0h20v3l-57 1-1 1h-35v-1l41-3z" fill="#FDFDFD"/>
<path transform="translate(757,391)" d="m0 0h1v25l-2 33h-1l-1-18-7 1h-16l-3-2 14-1 10-2 1-21 4 1z" fill="#A0ABB8"/>
<path transform="translate(903,743)" d="m0 0h60l60 1v1l-10 1-58-1h-45l-32 1-2 7-2-3 1-5 1-1z" fill="#718296"/>
<path transform="translate(155,916)" d="m0 0h7l5 3 11 2 3 3 1 5 1 55h-1l-2-22v-29l-2-9h-12l-1-2-3-1-22-1v-1l13-1z" fill="#718296"/>
<path transform="translate(52,962)" d="m0 0 5 2 2 4 1 7-4 2-1-11h-1l-1 12 10 1v1h-11l-11-2-4-4 1-5 5-5zm-10 4-1 2v8l4 2 4-1 2-3-1-6-1-2z" fill="#FDFDFD"/>
<path transform="translate(702,1366)" d="m0 0 6 3 1-2v2l4 1v-2l8 1-1 4h-2l-1 2h-4v-2l-3 2h-11l-3-2-4 1v-2l-3-1 7-3 5-1z" fill="#FDFDFD"/>
<path transform="translate(178,743)" d="m0 0h14l18 2v1l-40 1h-40v-1l28-1z" fill="#94A0AF"/>
<path transform="translate(684,195)" d="m0 0h2v2l-19 10-16 8-14 9-8 6-3-1 13-10 15-9 17-9z" fill="#7E8D9F"/>
<path transform="translate(471,337)" d="m0 0 1 3-26 26-9 11-9 10-9 11-4 3 2-4 12-14 11-13 7-8 11-12 3-3h2v-2l7-6z" fill="#8997A8"/>
<path transform="translate(541,141)" d="m0 0h1v7l-7 7-6 1-4-1-6-4 2-2 9-1 8-3 3-1z" fill="#718296"/>
<path transform="translate(1972,1022)" d="m0 0h15l13 4 9 5-2 1-14-6-9-2h-11l-12 4-14 8-3 2-7-1-4-4 5 2 5 1 14-9 10-4z" fill="#7B8B9E"/>
<path transform="translate(1255,1491)" d="m0 0h17l3 1v2h-2v2l-3 2-9 1-4-1-2-4z" fill="#718296"/>
<path transform="translate(1185,650)" d="m0 0 9 1 6 5 2 4v8l-2 5-5 2h-12v-18zm1 1-2 8v14l1 1 10-1 4-3 1-3v-7l-3-5-10-4z" fill="#718296"/>
<path transform="translate(468,31)" d="m0 0 2 1-5 5-8 7-10 9-3 4h-2l-2 4-12 12-5 6v-3l10-11 1-2h2l2-4 19-19z" fill="#9FABB8"/>
<path transform="translate(1830,877)" d="m0 0h1l1 25 3 17 4 7 1 8-3-3-4-8-2-6-1-7-1-25z" fill="#8291A3"/>
<path transform="translate(784,393)" d="m0 0 2 3v10l15-3h16v1l-35 4-2 1-1-4z" fill="#9CA8B5"/>
<path transform="translate(4,967)" d="m0 0h2l4 16 4 8 6 8 4 3v2l4 2 7 4-3 1-9-6-9-9-5-9-5-13z" fill="#718296"/>
<path transform="translate(1807,577)" d="m0 0 2 2 8 28 7 11 8 6-3 1-8-6-3-4v-2l-2-1-9-31z" fill="#A3AEBB"/>
<path transform="translate(1188,1395)" d="m0 0 3 3v2h2l4 8 9 2 1 2h-8l-9-4-2-7z" fill="#718296"/>
<path transform="translate(1948,807)" d="m0 0 4 3v16l-6 8-13 8-2-1 11-8 6-8 2-6v-8z" fill="#7D8D9F"/>
<path transform="translate(1110,424)" d="m0 0h12l-1 19-1 14h-1v-31l-27 1 4-2z" fill="#CED4DA"/>
<path transform="translate(159,882)" d="m0 0 38 2-2 3h-10l-24-3z" fill="#8C9AAA"/>
<path transform="translate(115,715)" d="m0 0 4 2v8l-2 9h-2v9h-1v-16z" fill="#718296"/>
<path transform="translate(629,1384)" d="m0 0h12l-4 3h-35v-1z" fill="#C7CDD5"/>
<path transform="translate(656,209)" d="m0 0m-2 1 2 1-3 3-12 7-12 9-3-1 13-10z" fill="#8997A7"/>
<path transform="translate(790,1006)" d="m0 0 3 1 3 5-1 5-5 4-6 3-3-1 8-6 1-9z" fill="#6F8094"/>
<path transform="translate(23,903)" d="m0 0m-2 1h2l-1 3-8 7-6 12-3 5-1-2 5-12 6-8z" fill="#7B8B9E"/>
<path transform="translate(1879,1017)" d="m0 0v3l-16 5-10 3-3-1v-2l21-5z" fill="#8190A1"/>
<path transform="translate(1305,1492)" d="m0 0h1v23l-1 2h-3l2-21z" fill="#9BA7B5"/>
<path transform="translate(61,880)" d="m0 0h14v2l-16 2-8 6h-3l6-7z" fill="#78889B"/>
<path transform="translate(73,879)" d="m0 0h10l15 2 4 2v1l-13-1-14-2z" fill="#8694A5"/>
<path transform="translate(1151,424)" d="m0 0 33 5v1l-22-1-10-3v6h-1z" fill="#B0BAC4"/>
<path transform="translate(1147,372)" d="m0 0h2l1 2 2 26 3 2h-6l-1-26z" fill="#F0F2F3"/>
<path transform="translate(624,322)" d="m0 0h2l-1 7-5 7-4 2 2-4 4-10z" fill="#6C7B8C"/>
<path transform="translate(1132,430)" d="m0 0 9 1-1 4-4 1 2 1-1 5-2-1v-9h-2v6h-1l-1-5-2-2z" fill="#FDFDFD"/>
<path transform="translate(1224,1491)" d="m0 0h1l1 12 1 3-2 1-1 12-2-4 1-20z" fill="#909DAD"/>
<path transform="translate(4,967)" d="m0 0h2l4 16 2 4v3h-2l-6-16z" fill="#7C8C9E"/>
<path transform="translate(784,393)" d="m0 0h1v14l-5 2-1-4z" fill="#FDFDFD"/>
<path transform="translate(440,57)" d="m0 0h2l-2 4-12 12-5 6v-3l10-11 1-2h2l2-4z" fill="#8B99A9"/>
<path transform="translate(1957,1027)" d="m0 0m-2 1h2v2l-13 8-7-1-4-4 5 2 5 1z" fill="#8695A6"/>
<path transform="translate(225,736)" d="m0 0h1v7l-1 3-3 1h-12v-2l12-1z" fill="#748498"/>
<path transform="translate(486,21)" d="m0 0 2 1-3 3-14 8-2-1 4-4z" fill="#8A98A8"/>
<path transform="translate(226,722)" d="m0 0h1l-1 14-2 7h-1v-11l1-8z" fill="#A1ACB9"/>
<path transform="translate(135,924)" d="m0 0h1l-1 12-1 9-2-1v-10z" fill="#FDFDFD"/>
<path transform="translate(156,917)" d="m0 0 7 1 2 3-25-1v-1l15-1z" fill="#E4E7EA"/>
<path transform="translate(876,744)" d="m0 0h25v1l-23 1-2 7-2-3 1-5z" fill="#6E7F93"/>
<path transform="translate(1711,1585)" d="m0 0 4 1v4l-2 2-5-1 2-5z" fill="#3F4C5B"/>
<path transform="translate(1948,790)" d="m0 0h1l2 19-4-3v-13z" fill="#FDFDFD"/>
<path transform="translate(1833,921)" d="m0 0 4 2 3 7-1 4-5-8z" fill="#939FAF"/>
<path transform="translate(60,967)" d="m0 0 5 1 1 3v7l-3 1-1-11z" fill="#FDFDFD"/>
<path transform="translate(1232,13)" d="m0 0h9v1l-10 2-8 7-3 2 2-4 5-5z" fill="#7E8A98"/>
<path transform="translate(1820,614)" d="m0 0 5 5 7 5-3 1-8-6z" fill="#79899C"/>
<path transform="translate(432,272)" d="m0 0 2 1-8 6-6 3-2-1z" fill="#7F8EA0"/>
<path transform="translate(46,967)" d="m0 0 2 1v6l-4 2z" fill="#FDFDFD"/>
<path transform="translate(723,1370)" d="m0 0h4l1 3h-6z" fill="#FDFDFD"/>
<path transform="translate(1958,1093)" d="m0 0 2 1v2h-2z" fill="#FDFDFD"/>
<path transform="translate(520,1445)" d="m0 0h3l-1 2z" fill="#FDFDFD"/>
<path transform="translate(720,1371)" d="m0 0 2 1z" fill="#FDFDFD"/>
<path transform="translate(712,1364)" d="m0 0 2 1z" fill="#FDFDFD"/>
<path transform="translate(706,1363)" d="m0 0" fill="#FDFDFD"/>
<path transform="translate(1959,1091)" d="m0 0" fill="#FDFDFD"/>
<path transform="translate(1125,392)" d="m0 0" fill="#FDFDFD"/>
<path transform="translate(728,1371)" d="m0 0" fill="#FDFDFD"/>
<path transform="translate(723,1368)" d="m0 0" fill="#FDFDFD"/>
<path transform="translate(711,1367)" d="m0 0" fill="#FDFDFD"/>
<path transform="translate(701,1364)" d="m0 0" fill="#FDFDFD"/>
<path transform="translate(1896,780)" d="m0 0" fill="#FDFDFD"/>
<path transform="translate(1127,435)" d="m0 0" fill="#FDFDFD"/>
<path transform="translate(1125,399)" d="m0 0" fill="#FDFDFD"/>
<path transform="translate(1141,396)" d="m0 0" fill="#FDFDFD"/>
<path transform="translate(1125,396)" d="m0 0" fill="#FDFDFD"/>
<path transform="translate(1124,394)" d="m0 0" fill="#FDFDFD"/>
</svg>
